<svg xmlns="http://www.w3.org/2000/svg" xmlns:xlink="http://www.w3.org/1999/xlink" width="491" height="491" viewBox="0 0 491 491">
  <defs>
    <linearGradient id="linear-gradient" y1="0.5" x2="1" y2="0.5" gradientUnits="objectBoundingBox">
      <stop offset="0" stop-color="#3d36eb"/>
      <stop offset="1" stop-color="#52eaff"/>
    </linearGradient>
    <clipPath id="clip-Computer">
      <rect width="491" height="491"/>
    </clipPath>
  </defs>
  <g id="Computer" clip-path="url(#clip-Computer)">
    <path id="Subtração_1" data-name="Subtração 1" d="M244.5,1763a246.309,246.309,0,0,1-49.275-4.967,243.16,243.16,0,0,1-87.427-36.789,245.213,245.213,0,0,1-88.584-107.573,243.271,243.271,0,0,1-14.247-45.9,246.886,246.886,0,0,1,0-98.55A243.16,243.16,0,0,1,41.757,1381.8a245.211,245.211,0,0,1,107.573-88.583,243.274,243.274,0,0,1,45.9-14.247,246.888,246.888,0,0,1,98.551,0,243.164,243.164,0,0,1,87.427,36.789,245.215,245.215,0,0,1,88.584,107.573,243.269,243.269,0,0,1,14.247,45.9,246.887,246.887,0,0,1,0,98.55,243.162,243.162,0,0,1-36.789,87.427,245.213,245.213,0,0,1-107.573,88.584,243.281,243.281,0,0,1-45.9,14.247A246.307,246.307,0,0,1,244.5,1763Zm0-439a195.942,195.942,0,0,0-39.2,3.952,193.435,193.435,0,0,0-69.548,29.266,195.067,195.067,0,0,0-70.468,85.574,193.519,193.519,0,0,0-11.333,36.51,196.4,196.4,0,0,0,0,78.4,193.435,193.435,0,0,0,29.266,69.548,195.065,195.065,0,0,0,85.574,70.468,193.526,193.526,0,0,0,36.51,11.333,196.4,196.4,0,0,0,78.4,0,193.437,193.437,0,0,0,69.548-29.266,195.069,195.069,0,0,0,70.468-85.574,193.524,193.524,0,0,0,11.333-36.51,196.4,196.4,0,0,0,0-78.4,193.434,193.434,0,0,0-29.266-69.548,195.068,195.068,0,0,0-85.574-70.468,193.521,193.521,0,0,0-36.51-11.333A195.942,195.942,0,0,0,244.5,1324Z" transform="translate(0 -1274)" fill="url(#linear-gradient)"/>
    <text id="BLUE" transform="translate(159 209)" font-size="76" font-family="OpenSans-Bold, Open Sans" font-weight="700" letter-spacing="-0.1em"><tspan x="0" y="0">BLUE</tspan></text>
    <text id="MARBLE" transform="translate(108 274)" font-size="76" font-family="OpenSans-Bold, Open Sans" font-weight="700" letter-spacing="-0.1em"><tspan x="0" y="0">MARBLE</tspan></text>
    <text id="Experiences_worth_sharing" data-name="Experiences worth sharing" transform="translate(90 324)" font-size="26" font-family="OpenSans-Light, Open Sans" font-weight="300"><tspan x="0" y="0">Experiences worth sharing</tspan></text>
  </g>
</svg>
