<svg id="Camada_1" data-name="Camada 1" xmlns="http://www.w3.org/2000/svg" xmlns:xlink="http://www.w3.org/1999/xlink" viewBox="0 0 454.4 454.39"><defs><radialGradient id="Gradiente_sem_nome_33" cx="224.2" cy="227.19" r="209.57" gradientUnits="userSpaceOnUse"><stop offset="0" stop-color="#00a5e9"/><stop offset="1" stop-color="#00a2d4" stop-opacity="0"/></radialGradient><linearGradient id="Gradiente_sem_nome_3" x1="1.05" y1="500.49" x2="1.98" y2="500.49" gradientTransform="matrix(489.01, 0, 0, -489, -488.01, 244988.66)" gradientUnits="userSpaceOnUse"><stop offset="0" stop-color="#3d36eb"/><stop offset="1" stop-color="#52eaff"/></linearGradient></defs><title>logo4</title><circle cx="224.2" cy="227.19" r="209.57" style="opacity:0.55;fill:url(#Gradiente_sem_nome_33)"/><path id="Subtração_1" data-name="Subtração 1" d="M253,477.19a228.88,228.88,0,0,1-45.79-4.62A227.11,227.11,0,0,1,30.42,295.78a229.41,229.41,0,0,1,0-91.57A227.11,227.11,0,0,1,207.21,27.42a229.41,229.41,0,0,1,91.58,0,227.11,227.11,0,0,1,176.79,176.8,229.41,229.41,0,0,1,0,91.57,227.11,227.11,0,0,1-176.8,176.79A228.87,228.87,0,0,1,253,477.19Zm0-407.93a182.07,182.07,0,0,0-36.43,3.67A180.67,180.67,0,0,0,75.93,213.58a182.5,182.5,0,0,0,0,72.85A180.67,180.67,0,0,0,216.57,427.06a182.5,182.5,0,0,0,72.85,0A180.67,180.67,0,0,0,430.06,286.43a182.5,182.5,0,0,0,0-72.85A180.67,180.67,0,0,0,289.42,72.94,182.07,182.07,0,0,0,253,69.27Z" transform="translate(-25.8 -22.81)" style="fill:url(#Gradiente_sem_nome_3)"/><path d="M178.48,171.56H194q10.58,0,15.36,3t4.78,9.58a12.07,12.07,0,0,1-2.09,7.31,8.36,8.36,0,0,1-5.56,3.44v.34q4.73,1.05,6.82,3.95a12.84,12.84,0,0,1,2.09,7.69,12.67,12.67,0,0,1-4.92,10.61q-4.92,3.81-13.35,3.81H178.48ZM189,191.25h6.12q4.29,0,6.21-1.33a5,5,0,0,0,1.92-4.39,4.39,4.39,0,0,0-2.09-4.1q-2.09-1.24-6.62-1.24H189Zm0,8.37v13h6.87q4.35,0,6.43-1.67a6.16,6.16,0,0,0,2.08-5.1q0-6.19-8.85-6.19Z" transform="translate(-25.8 -22.81)" style="fill:#fff"/><path d="M219.23,221.3V171.56h10.55v41H250v8.71Z" transform="translate(-25.8 -22.81)" style="fill:#fff"/><path d="M293,171.56v32.18a18.55,18.55,0,0,1-2.47,9.66,16.05,16.05,0,0,1-7.13,6.36,25.48,25.48,0,0,1-11,2.21q-9.59,0-14.9-4.92t-5.31-13.46v-32h10.51V202q0,5.75,2.31,8.44t7.65,2.69q5.17,0,7.5-2.71t2.33-8.49V171.56Z" transform="translate(-25.8 -22.81)" style="fill:#fff"/><path d="M327.78,221.3H299.14V171.56h28.65v8.64h-18.1v10.92h16.84v8.64H309.68v12.83h18.1Z" transform="translate(-25.8 -22.81)" style="fill:#fff"/><path d="M152.05,278.7l-12-39h-.31q.65,11.91.65,15.89V278.7H131V229h14.36l11.77,38h.2l12.49-38h14.36V278.7h-9.83V255.16q0-1.67.05-3.84t.46-11.57h-.31l-12.83,39Z" transform="translate(-25.8 -22.81)" style="fill:#fff"/><path d="M221.08,278.7l-3.61-11.84H199.34l-3.61,11.84H184.37l17.56-49.94h12.89l17.62,49.94ZM215,258q-5-16.09-5.63-18.2t-.9-3.33Q207.3,240.84,202,258Z" transform="translate(-25.8 -22.81)" style="fill:#fff"/><path d="M243.18,259.62V278.7H232.64V229h14.49q10.14,0,15,3.69T267,243.87a13.2,13.2,0,0,1-2.42,7.81,16,16,0,0,1-6.84,5.36Q269,273.8,272.37,278.7h-11.7L248.8,259.62Zm0-8.57h3.4q5,0,7.38-1.67a6,6,0,0,0,2.38-5.24q0-3.54-2.43-5t-7.54-1.5h-3.2Z" transform="translate(-25.8 -22.81)" style="fill:#fff"/><path d="M272.57,229h15.48q10.58,0,15.36,3t4.78,9.58a12.06,12.06,0,0,1-2.09,7.31,8.35,8.35,0,0,1-5.56,3.44v.34q4.73,1.05,6.82,3.95a12.83,12.83,0,0,1,2.09,7.69,12.67,12.67,0,0,1-4.92,10.62q-4.92,3.81-13.35,3.81H272.57Zm10.55,19.7h6.12q4.29,0,6.21-1.33a5,5,0,0,0,1.92-4.39,4.39,4.39,0,0,0-2.09-4.1q-2.09-1.24-6.62-1.24h-5.55Zm0,8.37v13H290q4.35,0,6.43-1.67a6.15,6.15,0,0,0,2.08-5.1q0-6.19-8.85-6.19Z" transform="translate(-25.8 -22.81)" style="fill:#fff"/><path d="M313.32,278.7V229h10.55v41H344v8.71Z" transform="translate(-25.8 -22.81)" style="fill:#fff"/><path d="M375.27,278.7H346.63V229h28.65v8.64h-18.1v10.92H374v8.64H357.17V270h18.1Z" transform="translate(-25.8 -22.81)" style="fill:#fff"/><path d="M136.08,330.09h-9.81V312.5h9.81v1.82h-7.76V320h7.29v1.8h-7.29v6.47h7.76Z" transform="translate(-25.8 -22.81)" style="fill:#fff"/><path d="M140.71,323.34l-4.58-6.44h2.27l3.48,5.05,3.47-5.05h2.25L143,323.34l4.83,6.75h-2.26l-3.69-5.34-3.73,5.34h-2.26Z" transform="translate(-25.8 -22.81)" style="fill:#fff"/><path d="M154.43,330.33a5.71,5.71,0,0,1-2.35-.47,4.43,4.43,0,0,1-1.79-1.46h-.14a17.69,17.69,0,0,1,.14,2.19V336h-2V316.9h1.62l.28,1.8h.1a4.64,4.64,0,0,1,1.79-1.56,5.46,5.46,0,0,1,2.35-.48,4.87,4.87,0,0,1,4,1.79,9.55,9.55,0,0,1,0,10.08A4.88,4.88,0,0,1,154.43,330.33Zm-.29-12a3.54,3.54,0,0,0-2.92,1.12,5.75,5.75,0,0,0-.93,3.56v.45a6.6,6.6,0,0,0,.93,4,3.52,3.52,0,0,0,3,1.2,3.09,3.09,0,0,0,2.68-1.38,6.57,6.57,0,0,0,1-3.81,6.32,6.32,0,0,0-1-3.78A3.18,3.18,0,0,0,154.15,318.36Z" transform="translate(-25.8 -22.81)" style="fill:#fff"/><path d="M166.83,330.33a6.06,6.06,0,0,1-4.61-1.78,6.9,6.9,0,0,1-1.69-4.95,7.64,7.64,0,0,1,1.57-5.07,5.21,5.21,0,0,1,4.22-1.88,5,5,0,0,1,3.92,1.63,6.25,6.25,0,0,1,1.44,4.3v1.26h-9.08a5.23,5.23,0,0,0,1.17,3.53,4.06,4.06,0,0,0,3.13,1.2,10.62,10.62,0,0,0,4.21-.89v1.78a10.54,10.54,0,0,1-2,.66A11.23,11.23,0,0,1,166.83,330.33Zm-.54-12a3.26,3.26,0,0,0-2.53,1,4.77,4.77,0,0,0-1.11,2.86h6.89a4.39,4.39,0,0,0-.84-2.89A3,3,0,0,0,166.28,318.33Z" transform="translate(-25.8 -22.81)" style="fill:#fff"/><path d="M179,316.66a7.86,7.86,0,0,1,1.58.14l-.28,1.85a6.82,6.82,0,0,0-1.44-.18,3.52,3.52,0,0,0-2.74,1.3,4.74,4.74,0,0,0-1.14,3.24v7.08h-2V316.9h1.65l.23,2.44h.1a5.8,5.8,0,0,1,1.77-2A4,4,0,0,1,179,316.66Z" transform="translate(-25.8 -22.81)" style="fill:#fff"/><path d="M180.68,313.33a1.32,1.32,0,0,1,.34-1,1.25,1.25,0,0,1,1.67,0,1.3,1.3,0,0,1,.35,1,1.32,1.32,0,0,1-.35,1,1.22,1.22,0,0,1-1.67,0A1.35,1.35,0,0,1,180.68,313.33Zm2.17,16.76h-2V316.9h2Z" transform="translate(-25.8 -22.81)" style="fill:#fff"/><path d="M190.51,330.33a6.06,6.06,0,0,1-4.61-1.78,6.9,6.9,0,0,1-1.69-4.95,7.64,7.64,0,0,1,1.57-5.07,5.21,5.21,0,0,1,4.22-1.88,5,5,0,0,1,3.92,1.63,6.25,6.25,0,0,1,1.44,4.3v1.26h-9.08a5.23,5.23,0,0,0,1.17,3.53,4.06,4.06,0,0,0,3.13,1.2,10.62,10.62,0,0,0,4.21-.89v1.78a10.54,10.54,0,0,1-2,.66A11.23,11.23,0,0,1,190.51,330.33Zm-.54-12a3.26,3.26,0,0,0-2.53,1,4.77,4.77,0,0,0-1.11,2.86h6.89a4.39,4.39,0,0,0-.84-2.89A3,3,0,0,0,190,318.33Z" transform="translate(-25.8 -22.81)" style="fill:#fff"/><path d="M205.65,330.09v-8.53a3.44,3.44,0,0,0-.73-2.41,3,3,0,0,0-2.3-.79,3.79,3.79,0,0,0-3,1.12,5.65,5.65,0,0,0-1,3.69v6.92h-2V316.9h1.62l.32,1.8h.1a4.08,4.08,0,0,1,1.72-1.51,5.58,5.58,0,0,1,2.47-.54,5,5,0,0,1,3.59,1.15,4.89,4.89,0,0,1,1.2,3.68v8.6Z" transform="translate(-25.8 -22.81)" style="fill:#fff"/><path d="M214.87,330.33a5.63,5.63,0,0,1-4.43-1.76,7.25,7.25,0,0,1-1.57-5,7.47,7.47,0,0,1,1.59-5.11,5.74,5.74,0,0,1,4.54-1.81,9,9,0,0,1,1.9.21,6.28,6.28,0,0,1,1.49.48l-.61,1.7a9.46,9.46,0,0,0-1.44-.44,6.45,6.45,0,0,0-1.38-.17q-4,0-4,5.13a6.1,6.1,0,0,0,1,3.73,3.41,3.41,0,0,0,2.91,1.3,8.88,8.88,0,0,0,3.38-.71v1.77A7.21,7.21,0,0,1,214.87,330.33Z" transform="translate(-25.8 -22.81)" style="fill:#fff"/><path d="M224.76,330.33a6.06,6.06,0,0,1-4.61-1.78,6.9,6.9,0,0,1-1.69-4.95,7.64,7.64,0,0,1,1.57-5.07,5.21,5.21,0,0,1,4.22-1.88,5,5,0,0,1,3.92,1.63,6.25,6.25,0,0,1,1.44,4.3v1.26h-9.08a5.23,5.23,0,0,0,1.17,3.53,4.06,4.06,0,0,0,3.13,1.2,10.62,10.62,0,0,0,4.21-.89v1.78a10.54,10.54,0,0,1-2,.66A11.23,11.23,0,0,1,224.76,330.33Zm-.54-12a3.26,3.26,0,0,0-2.53,1,4.77,4.77,0,0,0-1.11,2.86h6.89a4.39,4.39,0,0,0-.84-2.89A3,3,0,0,0,224.22,318.33Z" transform="translate(-25.8 -22.81)" style="fill:#fff"/><path d="M239.38,326.49a3.3,3.3,0,0,1-1.37,2.84,6.45,6.45,0,0,1-3.85,1,8.37,8.37,0,0,1-4.09-.83v-1.85a9.93,9.93,0,0,0,2,.76,8.51,8.51,0,0,0,2.1.28,4.76,4.76,0,0,0,2.41-.5,1.72,1.72,0,0,0,.17-2.84,10.53,10.53,0,0,0-2.6-1.29,14.12,14.12,0,0,1-2.62-1.2,3.58,3.58,0,0,1-1.16-1.16,3,3,0,0,1-.38-1.55,3,3,0,0,1,1.31-2.54,6.12,6.12,0,0,1,3.6-.93,10.52,10.52,0,0,1,4.16.87l-.71,1.62a9.55,9.55,0,0,0-3.6-.82,4.14,4.14,0,0,0-2.14.45,1.38,1.38,0,0,0-.72,1.23,1.49,1.49,0,0,0,.27.9,2.67,2.67,0,0,0,.87.71,19.41,19.41,0,0,0,2.31,1,8.61,8.61,0,0,1,3.17,1.72A3,3,0,0,1,239.38,326.49Z" transform="translate(-25.8 -22.81)" style="fill:#fff"/><path d="M255.51,330.09l-2.42-7.74q-.23-.71-.85-3.22h-.1q-.48,2.11-.84,3.25l-2.49,7.71H246.5l-3.6-13.19H245l1.94,7.57a30.7,30.7,0,0,1,.76,3.5h.1q.13-.69.43-1.77t.51-1.73l2.42-7.57h2.17l2.36,7.57a25.67,25.67,0,0,1,.92,3.48h.1a12.72,12.72,0,0,1,.26-1.34q.21-.9,2.51-9.71h2.07l-3.65,13.19Z" transform="translate(-25.8 -22.81)" style="fill:#fff"/><path d="M273.15,323.49a7.27,7.27,0,0,1-1.62,5,5.72,5.72,0,0,1-4.49,1.81,5.94,5.94,0,0,1-3.14-.83,5.48,5.48,0,0,1-2.12-2.38,8.31,8.31,0,0,1-.75-3.63,7.26,7.26,0,0,1,1.61-5,5.7,5.7,0,0,1,4.48-1.8,5.58,5.58,0,0,1,4.4,1.84A7.24,7.24,0,0,1,273.15,323.49Zm-10,0a6.26,6.26,0,0,0,1,3.85,4,4,0,0,0,6,0,6.23,6.23,0,0,0,1-3.86,6.13,6.13,0,0,0-1-3.82,3.57,3.57,0,0,0-3-1.31,3.52,3.52,0,0,0-3,1.29A6.2,6.2,0,0,0,263.1,323.49Z" transform="translate(-25.8 -22.81)" style="fill:#fff"/><path d="M280.52,316.66a7.87,7.87,0,0,1,1.58.14l-.28,1.85a6.82,6.82,0,0,0-1.44-.18,3.52,3.52,0,0,0-2.74,1.3A4.74,4.74,0,0,0,276.5,323v7.08h-2V316.9h1.65l.23,2.44h.1a5.8,5.8,0,0,1,1.77-2A4,4,0,0,1,280.52,316.66Z" transform="translate(-25.8 -22.81)" style="fill:#fff"/><path d="M286.68,328.68a7.13,7.13,0,0,0,1.8-.24V330a3.65,3.65,0,0,1-1,.26,7.29,7.29,0,0,1-1.14.1q-3.83,0-3.83-4v-7.85h-1.89v-1l1.89-.83.84-2.82h1.15v3.06h3.83v1.55h-3.83v7.76a2.66,2.66,0,0,0,.57,1.83A2,2,0,0,0,286.68,328.68Z" transform="translate(-25.8 -22.81)" style="fill:#fff"/><path d="M298,330.09v-8.53a3.44,3.44,0,0,0-.73-2.41,3,3,0,0,0-2.3-.79,3.77,3.77,0,0,0-3,1.13,5.73,5.73,0,0,0-1,3.71v6.89h-2V311.37h2V317a12.48,12.48,0,0,1-.1,1.7H291a4.07,4.07,0,0,1,1.68-1.5,5.45,5.45,0,0,1,2.48-.55,5.09,5.09,0,0,1,3.63,1.15,4.84,4.84,0,0,1,1.21,3.65v8.6Z" transform="translate(-25.8 -22.81)" style="fill:#fff"/><path d="M314.72,326.49a3.3,3.3,0,0,1-1.37,2.84,6.45,6.45,0,0,1-3.85,1,8.37,8.37,0,0,1-4.09-.83v-1.85a9.93,9.93,0,0,0,2,.76,8.52,8.52,0,0,0,2.1.28,4.76,4.76,0,0,0,2.41-.5,1.72,1.72,0,0,0,.17-2.84,10.51,10.51,0,0,0-2.6-1.29,14.12,14.12,0,0,1-2.62-1.2,3.58,3.58,0,0,1-1.16-1.16,3,3,0,0,1-.38-1.55,3,3,0,0,1,1.31-2.54,6.11,6.11,0,0,1,3.6-.93,10.52,10.52,0,0,1,4.16.87l-.71,1.62a9.55,9.55,0,0,0-3.6-.82,4.14,4.14,0,0,0-2.14.45,1.38,1.38,0,0,0-.72,1.23,1.49,1.49,0,0,0,.27.9,2.66,2.66,0,0,0,.87.71,19.5,19.5,0,0,0,2.31,1,8.62,8.62,0,0,1,3.17,1.72A3,3,0,0,1,314.72,326.49Z" transform="translate(-25.8 -22.81)" style="fill:#fff"/><path d="M324.85,330.09v-8.53a3.44,3.44,0,0,0-.73-2.41,3,3,0,0,0-2.3-.79,3.77,3.77,0,0,0-3,1.13,5.73,5.73,0,0,0-1,3.71v6.89h-2V311.37h2V317a12.3,12.3,0,0,1-.1,1.7h.12a4.07,4.07,0,0,1,1.68-1.5,5.46,5.46,0,0,1,2.49-.55,5.09,5.09,0,0,1,3.63,1.15,4.84,4.84,0,0,1,1.21,3.65v8.6Z" transform="translate(-25.8 -22.81)" style="fill:#fff"/><path d="M336.92,330.09l-.4-1.88h-.1a5.55,5.55,0,0,1-2,1.68,6,6,0,0,1-2.45.44,4.4,4.4,0,0,1-3.07-1,3.68,3.68,0,0,1-1.11-2.87q0-4,6.39-4.19l2.24-.07v-.82a3.34,3.34,0,0,0-.67-2.29,2.75,2.75,0,0,0-2.14-.74,8.7,8.7,0,0,0-3.73,1l-.61-1.53a9.42,9.42,0,0,1,2.14-.83,9.26,9.26,0,0,1,2.33-.3,5,5,0,0,1,3.5,1,4.37,4.37,0,0,1,1.14,3.36v9Zm-4.51-1.41a4.05,4.05,0,0,0,2.93-1,3.78,3.78,0,0,0,1.06-2.86v-1.19l-2,.08a7.27,7.27,0,0,0-3.44.74,2.23,2.23,0,0,0-1.05,2,2.06,2.06,0,0,0,.66,1.65A2.71,2.71,0,0,0,332.4,328.68Z" transform="translate(-25.8 -22.81)" style="fill:#fff"/><path d="M346.38,316.66a7.85,7.85,0,0,1,1.58.14l-.28,1.85a6.83,6.83,0,0,0-1.44-.18,3.52,3.52,0,0,0-2.74,1.3,4.74,4.74,0,0,0-1.14,3.24v7.08h-2V316.9H342l.23,2.44h.1a5.8,5.8,0,0,1,1.77-2A4,4,0,0,1,346.38,316.66Z" transform="translate(-25.8 -22.81)" style="fill:#fff"/><path d="M348.11,313.33a1.32,1.32,0,0,1,.34-1,1.25,1.25,0,0,1,1.67,0,1.3,1.3,0,0,1,.35,1,1.32,1.32,0,0,1-.35,1,1.17,1.17,0,0,1-.83.33,1.15,1.15,0,0,1-.84-.33A1.35,1.35,0,0,1,348.11,313.33Zm2.17,16.76h-2V316.9h2Z" transform="translate(-25.8 -22.81)" style="fill:#fff"/><path d="M361.4,330.09v-8.53a3.44,3.44,0,0,0-.73-2.41,3,3,0,0,0-2.3-.79,3.79,3.79,0,0,0-3,1.12,5.64,5.64,0,0,0-1,3.69v6.92h-2V316.9H354l.33,1.8h.1a4.08,4.08,0,0,1,1.72-1.51,5.59,5.59,0,0,1,2.47-.54,5,5,0,0,1,3.59,1.15,4.89,4.89,0,0,1,1.2,3.68v8.6Z" transform="translate(-25.8 -22.81)" style="fill:#fff"/><path d="M376.15,316.9v1.26l-2.44.29a4.29,4.29,0,0,1,.87,2.64,3.9,3.9,0,0,1-1.32,3.09,5.34,5.34,0,0,1-3.63,1.16,6.11,6.11,0,0,1-1.11-.1,2,2,0,0,0-1.28,1.7.86.86,0,0,0,.45.8,3.24,3.24,0,0,0,1.53.26h2.33a5.23,5.23,0,0,1,3.29.9,3.14,3.14,0,0,1,1.15,2.62,3.74,3.74,0,0,1-1.76,3.34,9.4,9.4,0,0,1-5.13,1.15,7,7,0,0,1-4-1,3.11,3.11,0,0,1-1.4-2.72,3.05,3.05,0,0,1,.77-2.08,3.93,3.93,0,0,1,2.17-1.19,2.09,2.09,0,0,1-.85-.71,1.88,1.88,0,0,1-.34-1.12,2.12,2.12,0,0,1,.38-1.26,4,4,0,0,1,1.22-1,3.57,3.57,0,0,1-1.67-1.43,4.21,4.21,0,0,1-.64-2.31,4.27,4.27,0,0,1,1.3-3.34,5.3,5.3,0,0,1,3.68-1.17,6.7,6.7,0,0,1,1.87.24Zm-10.52,15.4a1.79,1.79,0,0,0,.9,1.62,5,5,0,0,0,2.59.55,7.23,7.23,0,0,0,3.72-.75,2.3,2.3,0,0,0,1.21-2,1.61,1.61,0,0,0-.66-1.49,5.14,5.14,0,0,0-2.49-.42H368.5a3.16,3.16,0,0,0-2.12.65A2.32,2.32,0,0,0,365.63,332.3Zm1.08-11.18a2.69,2.69,0,0,0,.78,2.09,3.13,3.13,0,0,0,2.18.71q2.92,0,2.92-2.84t-3-3a2.93,2.93,0,0,0-2.17.76A3.05,3.05,0,0,0,366.71,321.13Z" transform="translate(-25.8 -22.81)" style="fill:#fff"/></svg>