<svg id="Camada_1" data-name="Camada 1" xmlns="http://www.w3.org/2000/svg" xmlns:xlink="http://www.w3.org/1999/xlink" viewBox="0 0 500 500"><defs><linearGradient id="Gradiente_sem_nome_3" x1="1.04" y1="500.49" x2="1.97" y2="500.49" gradientTransform="matrix(489.01, 0, 0, -489, -488.01, 244988.66)" gradientUnits="userSpaceOnUse"><stop offset="0" stop-color="#3d36eb"/><stop offset="1" stop-color="#52eaff"/></linearGradient></defs><title>Sem título-1</title><g id="Computer"><path id="Subtração_1" data-name="Subtração 1" d="M250,477.19a228.88,228.88,0,0,1-45.79-4.62A227.11,227.11,0,0,1,27.42,295.78a229.41,229.41,0,0,1,0-91.57A227.11,227.11,0,0,1,204.21,27.42a229.41,229.41,0,0,1,91.58,0,227.11,227.11,0,0,1,176.79,176.8,229.41,229.41,0,0,1,0,91.57,227.11,227.11,0,0,1-176.8,176.79A228.87,228.87,0,0,1,250,477.19Zm0-407.93a182.07,182.07,0,0,0-36.43,3.67A180.67,180.67,0,0,0,72.93,213.58a182.5,182.5,0,0,0,0,72.85A180.67,180.67,0,0,0,213.57,427.06a182.5,182.5,0,0,0,72.85,0A180.67,180.67,0,0,0,427.06,286.43a182.5,182.5,0,0,0,0-72.85A180.67,180.67,0,0,0,286.42,72.94,182.07,182.07,0,0,0,250,69.27Z" style="fill:url(#Gradiente_sem_nome_3)"/><g id="BLUE" style="isolation:isolate"><text transform="translate(170.55 217.01)" style="isolation:isolate;font-size:70.6208724975586px;fill:#fff;font-family:OpenSans-Bold, Open Sans;font-weight:700;letter-spacing:-0.0999989304719244em">BLUE</text></g><g id="MARBLE" style="isolation:isolate"><text transform="translate(123.16 277.41)" style="isolation:isolate;font-size:70.6208724975586px;fill:#fff;font-family:OpenSans-Bold, Open Sans;font-weight:700;letter-spacing:-0.0999989304719244em">MARBLE</text></g><g id="Experiences_worth_sharing" data-name="Experiences worth sharing" style="isolation:isolate"><text transform="translate(106.43 323.87)" style="isolation:isolate;font-size:24.159772872924805px;fill:#fff;font-family:OpenSans-Light, Open Sans">Experiences worth sharing</text></g></g></svg>